<svg xmlns="http://www.w3.org/2000/svg" width="75" viewBox="0 0 75 75" height="75" version="1.0"><defs><clipPath id="a"><path d="M 7.691406 7.363281 L 69.941406 7.363281 L 69.941406 69.613281 L 7.691406 69.613281 Z M 7.691406 7.363281"/></clipPath><clipPath id="b"><path d="M 5.382812 5.382812 L 65.382812 5.382812 L 65.382812 65.382812 L 5.382812 65.382812 Z M 5.382812 5.382812"/></clipPath></defs><g clip-path="url(#a)"><path d="M 44.246094 34.914062 C 46.378906 36.851562 47.601562 39.386719 47.601562 41.867188 C 47.601562 46.277344 44.671875 49.125 40.144531 49.125 C 37.128906 49.125 34.285156 48.019531 32.132812 46.007812 C 30.097656 44.105469 28.929688 41.585938 28.929688 39.097656 C 28.929688 34.890625 32.121094 31.835938 36.519531 31.835938 C 39.28125 31.835938 42.097656 32.957031 44.246094 34.914062 Z M 16.199219 16.417969 C 10.714844 22.316406 7.691406 30.128906 7.691406 38.421875 C 7.691406 46.8125 10.964844 54.675781 16.910156 60.5625 C 22.800781 66.398438 30.605469 69.613281 38.886719 69.613281 C 56.300781 69.613281 69.945312 55.679688 69.945312 37.894531 C 69.945312 31.375 68.332031 25.429688 65.019531 19.722656 L 64.867188 19.460938 L 64.613281 19.207031 C 64.300781 18.886719 63.480469 18.035156 62.078125 18.035156 C 60.242188 18.035156 58.6875 19.558594 58.6875 21.359375 C 58.6875 21.792969 58.789062 22.503906 59.066406 23.0625 L 59.132812 23.179688 C 61.871094 27.9375 63.039062 32.339844 63.039062 37.894531 C 63.039062 44.824219 60.535156 51.140625 55.988281 55.679688 C 51.535156 60.125 45.460938 62.574219 38.886719 62.574219 C 32.355469 62.574219 26.261719 60.125 21.722656 55.679688 C 17.128906 51.179688 14.601562 45.050781 14.601562 38.421875 C 14.601562 31.90625 16.996094 25.785156 21.339844 21.191406 C 25.421875 16.875 30.808594 14.402344 36.117188 14.402344 C 39.914062 14.402344 42.980469 15.222656 44.984375 16.769531 C 46.515625 17.953125 47.355469 19.5625 47.355469 21.292969 C 47.355469 23.550781 46.429688 24.558594 44.351562 24.558594 C 43.742188 24.558594 42.386719 24.425781 40.742188 24.132812 L 27.425781 21.757812 C 26.011719 21.511719 24.589844 21.882812 23.53125 22.773438 C 22.511719 23.632812 21.925781 24.894531 21.925781 26.234375 C 21.925781 27.96875 22.828125 29.425781 24.34375 30.242188 C 22.476562 32.535156 21.527344 35.371094 21.527344 38.6875 C 21.527344 42.996094 23.496094 47.394531 26.921875 50.753906 C 30.53125 54.292969 35.269531 56.238281 40.269531 56.238281 C 44.332031 56.238281 48.019531 54.753906 50.652344 52.0625 C 53.195312 49.457031 54.59375 45.925781 54.59375 42.113281 C 54.59375 38.191406 53.265625 34.777344 50.539062 31.699219 C 53.160156 29.535156 54.59375 26.132812 54.59375 22.015625 C 54.59375 18.097656 52.9375 14.480469 49.933594 11.832031 C 46.613281 8.90625 41.835938 7.363281 36.117188 7.363281 C 28.808594 7.363281 21.550781 10.660156 16.199219 16.417969"/></g><g clip-path="url(#b)"><path fill="#FFF" d="M 40.617188 31.9375 C 42.671875 33.804688 43.851562 36.25 43.851562 38.636719 C 43.851562 42.890625 41.027344 45.636719 36.664062 45.636719 C 33.757812 45.636719 31.015625 44.570312 28.941406 42.632812 C 26.980469 40.796875 25.855469 38.367188 25.855469 35.972656 C 25.855469 31.917969 28.929688 28.972656 33.167969 28.972656 C 35.832031 28.972656 38.546875 30.054688 40.617188 31.9375 Z M 13.582031 14.109375 C 8.296875 19.796875 5.386719 27.328125 5.386719 35.320312 C 5.386719 43.40625 8.539062 50.984375 14.265625 56.660156 C 19.945312 62.285156 27.46875 65.382812 35.449219 65.382812 C 52.238281 65.382812 65.386719 51.957031 65.386719 34.8125 C 65.386719 28.527344 63.832031 22.796875 60.636719 17.296875 L 60.492188 17.042969 L 60.246094 16.800781 C 59.949219 16.488281 59.15625 15.671875 57.804688 15.671875 C 56.035156 15.671875 54.539062 17.136719 54.539062 18.871094 C 54.539062 19.292969 54.632812 19.976562 54.902344 20.515625 L 54.964844 20.628906 C 57.605469 25.214844 58.730469 29.457031 58.730469 34.8125 C 58.730469 41.492188 56.316406 47.582031 51.9375 51.953125 C 47.644531 56.238281 41.789062 58.597656 35.449219 58.597656 C 29.15625 58.597656 23.285156 56.238281 18.910156 51.953125 C 14.480469 47.617188 12.042969 41.710938 12.042969 35.320312 C 12.042969 29.039062 14.351562 23.140625 18.539062 18.710938 C 22.472656 14.550781 27.664062 12.167969 32.78125 12.167969 C 36.441406 12.167969 39.398438 12.957031 41.328125 14.453125 C 42.804688 15.59375 43.613281 17.140625 43.613281 18.808594 C 43.613281 20.984375 42.722656 21.957031 40.71875 21.957031 C 40.128906 21.957031 38.824219 21.832031 37.242188 21.546875 L 24.40625 19.257812 C 23.039062 19.023438 21.671875 19.378906 20.652344 20.238281 C 19.667969 21.066406 19.101562 22.28125 19.101562 23.570312 C 19.101562 25.246094 19.972656 26.652344 21.433594 27.4375 C 19.632812 29.644531 18.722656 32.378906 18.722656 35.574219 C 18.722656 39.726562 20.617188 43.964844 23.921875 47.207031 C 27.398438 50.617188 31.964844 52.492188 36.785156 52.492188 C 40.699219 52.492188 44.253906 51.0625 46.789062 48.464844 C 49.242188 45.957031 50.589844 42.550781 50.589844 38.875 C 50.589844 35.097656 49.308594 31.808594 46.683594 28.839844 C 49.210938 26.753906 50.589844 23.476562 50.589844 19.507812 C 50.589844 15.730469 48.996094 12.242188 46.097656 9.691406 C 42.898438 6.871094 38.292969 5.382812 32.78125 5.382812 C 25.738281 5.382812 18.742188 8.5625 13.582031 14.109375"/></g></svg>