<svg xmlns="http://www.w3.org/2000/svg" width="75" viewBox="0 0 75 75" height="75" version="1.0"><defs><clipPath id="a"><path d="M 7.5 7.5 L 67.5 7.5 L 67.5 67.5 L 7.5 67.5 Z M 7.5 7.5"/></clipPath></defs><g clip-path="url(#a)"><path fill="#FFF" d="M 67.5 37.5 C 67.5 54.074219 54.074219 67.5 37.5 67.5 C 20.925781 67.5 7.5 54.074219 7.5 37.5 C 7.5 20.925781 20.925781 7.5 37.5 7.5 C 54.074219 7.5 67.5 20.925781 67.5 37.5 Z M 32.011719 53.324219 C 45.316406 53.324219 52.589844 42.300781 52.589844 32.746094 C 52.589844 32.429688 52.589844 32.113281 52.574219 31.816406 C 53.984375 30.796875 55.214844 29.519531 56.191406 28.066406 C 54.898438 28.636719 53.503906 29.023438 52.035156 29.203125 C 53.535156 28.304688 54.675781 26.894531 55.214844 25.199219 C 53.820312 26.023438 52.273438 26.625 50.625 26.953125 C 49.304688 25.546875 47.429688 24.675781 45.34375 24.675781 C 41.355469 24.675781 38.113281 27.914062 38.113281 31.90625 C 38.113281 32.476562 38.175781 33.03125 38.308594 33.554688 C 32.296875 33.253906 26.96875 30.375 23.398438 25.996094 C 22.785156 27.058594 22.425781 28.304688 22.425781 29.625 C 22.425781 32.128906 23.699219 34.351562 25.648438 35.640625 C 24.464844 35.609375 23.355469 35.28125 22.378906 34.738281 C 22.378906 34.769531 22.378906 34.800781 22.378906 34.828125 C 22.378906 38.339844 24.871094 41.25 28.183594 41.925781 C 27.585938 42.089844 26.941406 42.179688 26.28125 42.179688 C 25.816406 42.179688 25.363281 42.136719 24.914062 42.046875 C 25.828125 44.925781 28.5 47.011719 31.664062 47.070312 C 29.191406 49.003906 26.070312 50.160156 22.679688 50.160156 C 22.09375 50.160156 21.523438 50.128906 20.953125 50.054688 C 24.121094 52.125 27.929688 53.324219 32.011719 53.324219"/></g></svg>